<?xml version="1.0" encoding="UTF-8" standalone="no"?>
<svg
   xmlns:serif="http://www.serif.com/"
   xmlns:dc="http://purl.org/dc/elements/1.1/"
   xmlns:cc="http://creativecommons.org/ns#"
   xmlns:rdf="http://www.w3.org/1999/02/22-rdf-syntax-ns#"
   xmlns:svg="http://www.w3.org/2000/svg"
   xmlns="http://www.w3.org/2000/svg"
   id="svg8"
   version="1.1"
   viewBox="0 0 22.808281 25.241209"
   height="25.241209mm"
   width="22.808281mm">
  <defs
     id="defs2" />
  <metadata
     id="metadata5">
    <rdf:RDF>
      <cc:Work
         rdf:about="">
        <dc:format>image/svg+xml</dc:format>
        <dc:type
           rdf:resource="http://purl.org/dc/dcmitype/StillImage" />
        <dc:title></dc:title>
      </cc:Work>
    </rdf:RDF>
  </metadata>
  <g
     transform="translate(-108.79229,-144.59426)"
     id="layer1">
    <g
       transform="matrix(0.26458333,0,0,0.26458333,-153.90377,183.58071)"
       id="g1204-7-2"
       style="clip-rule:evenodd;display:inline;fill-rule:evenodd;stroke-linecap:round;stroke-linejoin:round">
      <g
         id="Złote-koła-5-7"
         serif:id="Złote koła"
         transform="translate(1052.7999,54.548238)">
        <g
           id="c57-0-4-3"
           serif:id="c5"
           transform="translate(-289.71177,-139.21022)"
           style="clip-rule:evenodd;display:inline;fill-rule:evenodd;stroke-linecap:round;stroke-linejoin:round" />
        <g
           id="c57-6-6-8"
           serif:id="c5"
           transform="translate(-290.94609,-104.54053)"
           style="clip-rule:evenodd;display:inline;fill-rule:evenodd;stroke-linecap:round;stroke-linejoin:round" />
        <g
           style="clip-rule:evenodd;display:inline;fill:none;fill-opacity:1;fill-rule:evenodd;stroke:#e400cc;stroke-linecap:round;stroke-linejoin:round;stroke-opacity:1"
           id="c42-4-3-2"
           serif:id="c4"
           transform="translate(-291.70371,-127.01642)" />
        <g
           style="clip-rule:evenodd;display:inline;fill-rule:evenodd;stroke:#33e10b;stroke-linecap:round;stroke-linejoin:round;stroke-opacity:1"
           id="c3-5-5-4"
           transform="translate(-267.71259,-116.15729)" />
        <g
           style="clip-rule:evenodd;display:inline;fill-rule:evenodd;stroke:#33e10b;stroke-linecap:round;stroke-linejoin:round;stroke-opacity:1"
           id="c3-5-8-5-6"
           transform="translate(-190.95632,-307.75976)">
          <path
             transform="translate(-347.58828,-251.09996)"
             id="path1569-3-9"
             d="m 506.97461,402.66602 a 50.126997,50.043997 0 0 0 -3.54492,0.125 50.126997,50.043997 0 0 0 -4.97461,0.60351 50.126997,50.043997 0 0 0 -4.88867,1.0957 50.126997,50.043997 0 0 0 -4.75586,1.57618 50.126997,50.043997 0 0 0 -4.20508,1.88086 50.126997,50.043997 0 0 0 -0.36719,0.16406 50.126997,50.043997 0 0 0 -1.75586,1.00586 31.323999,31.271999 0 0 0 0,0.002 31.323999,31.271999 0 0 0 -0.002,0 50.126998,50.043998 0 0 0 -2.23633,1.2793 50.126998,50.043998 0 0 0 0.041,0.32422 50.126998,50.043998 0 0 0 0.75,3.33007 31.323999,31.271999 0 0 1 0,0.002 50.126997,50.043997 0 0 0 0.008,0.0351 18.728001,18.788 0 0 0 0,0.002 h -0.002 a 50.126998,50.043998 0 0 0 0.33984,1.51172 50.126998,50.043998 0 0 0 1.58008,4.74609 50.126998,50.043998 0 0 0 1.33008,2.96875 50.126998,50.043998 0 0 0 0.56445,-3.73047 50.126998,50.043998 0 0 0 0.25195,-4.99609 50.126998,50.043998 0 0 0 -0.12695,-3.54102 50.126998,50.043998 0 0 0 -0.0254,-0.2207 18.728001,18.788 0 0 0 -0.25586,0.14648 18.728001,18.788 0 0 1 0,-0.002 18.728001,18.788 0 0 1 0.25586,-0.14649 50.126997,50.043997 0 0 1 0,0.002 50.126997,50.043997 0 0 1 0.0273,0.21875 50.126997,50.043997 0 0 1 0.12696,3.54101 50.126997,50.043997 0 0 1 -0.25196,4.9961 50.126997,50.043997 0 0 1 -0.56445,3.73047 50.126997,50.043997 0 0 0 0.7168,1.59765 50.126997,50.043997 0 0 0 1.17578,2.04883 50.126997,50.043997 0 0 1 2.82812,3.94922 50.126997,50.043997 0 0 1 1.30469,2.27148 50.126997,50.043997 0 0 0 0.0996,0.13868 50.126997,50.043997 0 0 0 3.30664,3.75781 50.126997,50.043997 0 0 0 3.66601,3.41015 50.126997,50.043997 0 0 0 3.98829,3.02735 50.126997,50.043997 0 0 0 0.83007,0.50781 18.728001,18.788 0 0 1 -0.002,0.002 50.126998,50.043998 0 0 1 -0.002,0 50.126998,50.043998 0 0 1 -0.82813,-0.50781 50.126998,50.043998 0 0 1 -3.98828,-3.02734 50.126998,50.043998 0 0 1 -3.66601,-3.41016 50.126998,50.043998 0 0 1 -3.30664,-3.75781 50.126998,50.043998 0 0 1 -0.0996,-0.13867 50.126998,50.043998 0 0 1 1.1875,2.0664 50.126998,50.043998 0 0 1 2.04687,4.56641 50.126998,50.043998 0 0 1 1.58008,4.74805 50.126998,50.043998 0 0 1 0.22266,0.98828 18.728001,18.788 0 0 0 0.002,0 50.126997,50.043997 0 0 1 0.31055,1.3789 31.323999,31.271999 0 0 0 1.07031,0.6543 31.323999,31.271999 0 0 0 2.81836,1.36133 31.323999,31.271999 0 0 0 2.9414,1.07031 31.323999,31.271999 0 0 0 3.03321,0.77344 31.323999,31.271999 0 0 0 3.0957,0.4668 31.323999,31.271999 0 0 0 1.99609,0.0996 31.323999,31.271999 0 0 0 1.13282,0.0566 31.323999,31.271999 0 0 0 2.21484,-0.0781 31.323999,31.271999 0 0 0 3.10742,-0.37695 31.323999,31.271999 0 0 0 0.78321,-0.17578 31.323999,31.271999 0 0 0 2.27343,-0.50782 31.323999,31.271999 0 0 0 2.97071,-0.98632 31.323999,31.271999 0 0 0 2.85742,-1.2754 31.323999,31.271999 0 0 0 0.86328,-0.49414 18.728001,18.788 0 0 1 -0.0586,-0.0293 18.728001,18.788 0 0 1 -1.5957,-0.98242 18.728001,18.788 0 0 1 -1.49023,-1.13672 18.728001,18.788 0 0 1 -1.3711,-1.2793 18.728001,18.788 0 0 1 -1.23437,-1.41016 18.728001,18.788 0 0 1 -1.08984,-1.52929 18.728001,18.788 0 0 1 -0.043,-0.0742 50.126997,50.043997 0 0 0 2.46679,-4.01367 50.126997,50.043997 0 0 0 2.17969,-4.50391 50.126997,50.043997 0 0 0 1.71875,-4.69922 50.126997,50.043997 0 0 0 1.23828,-4.84766 50.126997,50.043997 0 0 0 0.75,-4.94531 50.126997,50.043997 0 0 0 0.21875,-4.3789 50.126997,50.043997 0 0 0 0.0312,-0.61719 50.126997,50.043997 0 0 0 -0.125,-3.54102 50.126997,50.043997 0 0 0 -0.25586,-2.11132 50.126997,50.043997 0 0 0 -1.66797,-0.80469 50.126997,50.043997 0 0 0 -4.70703,-1.7168 50.126997,50.043997 0 0 0 -4.85547,-1.23633 50.126997,50.043997 0 0 0 -4.95507,-0.74804 50.126997,50.043997 0 0 0 -5.00391,-0.25 z m -23.79883,9.40234 a 18.728001,18.788 0 0 0 0,0.002 18.728001,18.788 0 0 0 -1.40625,1.23828 18.728001,18.788 0 0 1 0,-0.002 18.728001,18.788 0 0 1 1.40625,-1.23828 z"
             style="opacity:1;fill:#ffffff;fill-opacity:1;stroke:#000000;stroke-width:1.88976383;stroke-linecap:square;stroke-linejoin:round;stroke-miterlimit:1.5;stroke-dasharray:none;stroke-opacity:1;paint-order:markers stroke fill" />
          <path
             id="path1567-9-2"
             d="m 133.44588,162.95447 a 31.323999,31.271999 0 0 0 -0.01,0.0547 18.728001,18.788 0 0 1 0.0176,-0.0176 50.126999,50.043999 0 0 1 -0.008,-0.0371 z"
             style="opacity:0.925;fill:#000000;fill-opacity:1;stroke:none;stroke-width:2.78437281;stroke-miterlimit:1.5;stroke-dasharray:none;stroke-opacity:1" />
          <path
             transform="translate(-347.58828,-251.09996)"
             id="path1565-5-5"
             d="m 513.74414,357.90625 a 50.126996,50.043996 0 0 0 -3.54492,0.12695 50.126996,50.043996 0 0 0 -4.97461,0.60157 50.126996,50.043996 0 0 0 -0.0977,0.0215 50.126996,50.043996 0 0 0 -2.52734,1.44727 50.126996,50.043996 0 0 0 -4.07617,2.91015 50.126996,50.043996 0 0 0 -3.36719,2.95313 50.126996,50.043996 0 0 0 -0.39648,0.34765 50.126996,50.043996 0 0 0 -3.41602,3.66016 50.126996,50.043996 0 0 0 -3.03125,3.98242 50.126996,50.043996 0 0 0 -2.61914,4.26563 50.126996,50.043996 0 0 0 -2.17969,4.5039 50.126996,50.043996 0 0 0 -1.71875,4.69922 50.126996,50.043996 0 0 0 -1.24023,4.84766 50.126996,50.043996 0 0 0 -0.1836,1.21484 50.126996,50.043996 0 0 0 -0.56445,3.73047 50.126996,50.043996 0 0 0 -0.25,4.99609 50.126996,50.043996 0 0 0 0.125,3.53907 50.126996,50.043996 0 0 0 0.56445,4.64257 50.126996,50.043996 0 0 1 2.23438,-1.27734 50.126997,50.043997 0 0 1 0.002,-0.002 50.126997,50.043997 0 0 1 1.75391,-1.00391 50.126997,50.043997 0 0 1 0.36719,-0.16406 50.126997,50.043997 0 0 0 -0.22657,-1.86328 50.126997,50.043997 0 0 0 -0.17968,-0.79688 50.126997,50.043997 0 0 0 0,-0.002 31.323999,31.271999 0 0 1 0.002,-0.002 50.126996,50.043996 0 0 1 0.17969,0.79882 50.126996,50.043996 0 0 1 0.22656,1.86329 50.126996,50.043996 0 0 1 4.20508,-1.88086 50.126996,50.043996 0 0 1 4.75586,-1.57618 50.126996,50.043996 0 0 1 4.88867,-1.0957 50.126996,50.043996 0 0 1 4.97461,-0.60351 50.126996,50.043996 0 0 1 3.54492,-0.125 50.126996,50.043996 0 0 1 5.00391,0.25 50.126996,50.043996 0 0 1 4.95507,0.74804 50.126996,50.043996 0 0 1 4.85547,1.23633 50.126996,50.043996 0 0 1 4.70703,1.7168 50.126996,50.043996 0 0 1 1.66797,0.80469 50.126996,50.043996 0 0 1 0.25586,2.11132 50.126996,50.043996 0 0 1 0.125,3.54102 50.126996,50.043996 0 0 1 -0.0312,0.61719 50.126996,50.043996 0 0 1 -0.21875,4.3789 50.126996,50.043996 0 0 1 -0.75,4.94531 50.126996,50.043996 0 0 1 -1.23828,4.84766 50.126996,50.043996 0 0 1 -1.71875,4.69922 50.126996,50.043996 0 0 1 -2.17969,4.50391 50.126996,50.043996 0 0 1 -2.46679,4.01367 18.728001,18.788 0 0 0 0.043,0.0742 18.728001,18.788 0 0 0 1.08984,1.52929 18.728001,18.788 0 0 0 1.23437,1.41016 18.728001,18.788 0 0 0 1.3711,1.2793 18.728001,18.788 0 0 0 1.49023,1.13672 18.728001,18.788 0 0 0 1.5957,0.98242 18.728001,18.788 0 0 0 0.0586,0.0293 18.728001,18.788 0 0 0 1.62695,0.78711 18.728001,18.788 0 0 0 1.75781,0.64453 18.728001,18.788 0 0 0 1.81446,0.46485 18.728001,18.788 0 0 0 1.85156,0.2793 18.728001,18.788 0 0 0 1.86914,0.0957 18.728001,18.788 0 0 0 1.32422,-0.0488 18.728001,18.788 0 0 0 1.85937,-0.22461 18.728001,18.788 0 0 0 1.82618,-0.41211 18.728001,18.788 0 0 0 1.77734,-0.5918 18.728001,18.788 0 0 0 1.25195,-0.5625 50.126996,50.043996 0 0 0 1.1211,-0.80078 50.126996,50.043996 0 0 0 3.76367,-3.30273 50.126996,50.043996 0 0 0 3.37695,-3.61914 18.728001,18.788 0 0 0 0.002,-0.002 50.126998,50.043998 0 0 0 0.0352,-0.0371 50.126998,50.043998 0 0 0 2.42188,-3.17774 50.126998,50.043998 0 0 0 -0.5586,-1.67578 18.728001,18.788 0 0 0 0.002,-0.004 50.126996,50.043996 0 0 1 0.55859,1.67774 50.126996,50.043996 0 0 0 0.61133,-0.80274 50.126996,50.043996 0 0 0 2.61914,-4.26562 50.126996,50.043996 0 0 0 2.17773,-4.50391 50.126996,50.043996 0 0 0 1.71875,-4.69922 50.126996,50.043996 0 0 0 1.24024,-4.84765 50.126996,50.043996 0 0 0 0.74804,-4.94531 50.126996,50.043996 0 0 0 0.25,-4.9961 50.126996,50.043996 0 0 0 -0.125,-3.54101 50.126996,50.043996 0 0 0 -0.60351,-4.96485 50.126996,50.043996 0 0 0 -1.09766,-4.88086 50.126996,50.043996 0 0 0 -1.58008,-4.74804 50.126996,50.043996 0 0 0 -2.04687,-4.56446 50.126996,50.043996 0 0 0 -2.49219,-4.33984 50.126996,50.043996 0 0 0 -2.91406,-4.06836 50.126996,50.043996 0 0 0 -3.3086,-3.75781 50.126996,50.043996 0 0 0 -3.66601,-3.41016 50.126996,50.043996 0 0 0 -3.98828,-3.02734 50.126996,50.043996 0 0 0 -4.27149,-2.61524 50.126996,50.043996 0 0 0 -4.51172,-2.17578 50.126996,50.043996 0 0 0 -4.70703,-1.71484 50.126996,50.043996 0 0 0 -4.85547,-1.23828 50.126996,50.043996 0 0 0 -4.95312,-0.74805 50.126996,50.043996 0 0 0 -5.00586,-0.25 z"
             style="opacity:1;fill:#000000;fill-opacity:1;stroke:#000010;stroke-width:1.88976383;stroke-miterlimit:1.5;stroke-dasharray:none;stroke-opacity:1;paint-order:stroke fill markers" />
          <path
             id="path972-9-1"
             d="m 152.76291,157.73684 a 18.728001,18.788 0 0 1 1.28711,0.47266 18.728001,18.788 0 0 0 -1.28711,-0.47266 z"
             style="opacity:1;fill:#ccff00;fill-opacity:1;stroke:none;stroke-width:2.78437281;stroke-miterlimit:1.5;stroke-dasharray:none;stroke-opacity:1" />
          <path
             id="path1559-0-1"
             d="m 159.29416,161.31497 a 18.728001,18.788 0 0 1 1.36914,1.28125 18.728001,18.788 0 0 0 -1.36914,-1.28125 z"
             style="opacity:1;fill:#ccff00;fill-opacity:1;stroke:none;stroke-width:2.78437281;stroke-miterlimit:1.5;stroke-dasharray:none;stroke-opacity:1" />
          <path
             transform="translate(-347.58828,-251.09996)"
             id="path1521-9-0"
             d="m 484.29102,423.31836 a 50.126998,50.043998 0 0 1 -0.1836,1.21484 50.126998,50.043998 0 0 1 -0.01,0.0371 50.126998,50.043998 0 0 1 0.002,0.002 50.126997,50.043997 0 0 1 -1.23047,4.80664 50.126997,50.043997 0 0 1 -0.52734,1.44531 50.126997,50.043997 0 0 1 -1.18946,3.25195 50.126997,50.043997 0 0 1 -1.66992,3.45313 18.728001,18.788 0 0 0 0.66602,0.93359 18.728001,18.788 0 0 0 1.23437,1.41211 18.728001,18.788 0 0 0 1.36914,1.2793 18.728001,18.788 0 0 0 1.49024,1.13672 18.728001,18.788 0 0 0 1.59765,0.98242 18.728001,18.788 0 0 0 1.68555,0.8164 18.728001,18.788 0 0 0 1.75781,0.64454 18.728001,18.788 0 0 0 1.81446,0.46484 18.728001,18.788 0 0 0 1.84961,0.2793 18.728001,18.788 0 0 0 0.52539,0.0273 18.728001,18.788 0 0 0 1.3457,0.0664 18.728001,18.788 0 0 0 0.53711,-0.0195 50.126997,50.043997 0 0 0 -0.22266,-0.98828 50.126997,50.043997 0 0 0 -1.58008,-4.74804 50.126997,50.043997 0 0 0 -2.04687,-4.56641 50.126997,50.043997 0 0 0 -1.1875,-2.06641 50.126997,50.043997 0 0 1 -0.0156,-0.0215 50.126998,50.043998 0 0 0 -1.29101,-2.24805 50.126998,50.043998 0 0 0 -2.8125,-3.92773 50.126997,50.043997 0 0 1 -0.0137,-0.0234 50.126997,50.043997 0 0 0 -0.0156,-0.0234 50.126998,50.043998 0 0 1 -1.16211,-2.02343 50.126998,50.043998 0 0 1 -0.71679,-1.59766 z"
             style="opacity:1;fill:#000000;fill-opacity:1;stroke:none;stroke-width:1.88976383;stroke-miterlimit:1.5;stroke-dasharray:none;stroke-opacity:1;paint-order:markers stroke fill" />
        </g>
      </g>
    </g>
    <g
       transform="matrix(0.26454097,-0.00473443,0.00473443,0.26454097,-39.901903,28.422204)"
       id="g1075-1-6-9-0"
       style="clip-rule:evenodd;display:inline;fill-rule:evenodd;stroke-linecap:round;stroke-linejoin:round;stroke-miterlimit:1.5">
      <g
         id="g1156-6-1">
        <ellipse
           transform="matrix(3.7795276,0,0,3.7795276,75.604083,93.947317)"
           id="ellipse1067-2-4-2-0"
           style="clip-rule:evenodd;display:inline;fill:none;fill-rule:evenodd;stroke:#000000;stroke-width:0.27781248px;stroke-linecap:round;stroke-linejoin:round;stroke-miterlimit:4"
           ry="1.6637"
           rx="1.6663458"
           cy="109.72099"
           cx="129.79083" />
        <ellipse
           transform="translate(463.86812,315.66383)"
           id="ellipse1070-8-5-9-9"
           style="clip-rule:evenodd;display:inline;fill:none;fill-rule:evenodd;stroke:#000000;stroke-width:1.04999995px;stroke-linecap:round;stroke-linejoin:round;stroke-miterlimit:4"
           ry="6.2880001"
           rx="6.2979999"
           cy="192.14"
           cx="125.231" />
        <path
           id="path1073-4-5-7-8"
           style="fill:none;stroke:#0d0d0d;stroke-width:1.04999995px"
           d="m 572,505.199 c 3.329,-3.258 6.888,-2.829 10.667,1.119" />
      </g>
    </g>
  </g>
</svg>
